<?xml version="1.0" encoding="utf-8"?>
<!-- Generator: Adobe Illustrator 25.0.0, SVG Export Plug-In . SVG Version: 6.00 Build 0)  -->
<svg version="1.1" xmlns="http://www.w3.org/2000/svg" xmlns:xlink="http://www.w3.org/1999/xlink" x="0px" y="0px"
	 viewBox="0 0 512 512" style="enable-background:new 0 0 512 512;" xml:space="preserve">
<style type="text/css">
	.st0{fill:none;stroke:#000000;stroke-width:16;stroke-miterlimit:10;}
	.st1{stroke:#000000;stroke-width:22;stroke-miterlimit:10;}
	.st2{fill:none;stroke:#000000;stroke-width:22;stroke-miterlimit:10;}
</style>
<g id="NexT" xmlns:cc="http://creativecommons.org/ns#" xmlns:dc="http://purl.org/dc/elements/1.1/" xmlns:rdf="http://www.w3.org/1999/02/22-rdf-syntax-ns#" xmlns:svg="http://www.w3.org/2000/svg">
</g>
<g id="图层_2">
	<path class="st0" d="M256.4,497c2,2.8,8.4-36.1,8.8-39.6c3.8-34.4,3.5-64.6,7-96.8C274.9,336.3,280,265,296,214
		c1.4-4.3-20.9-16.6-23.5-20.3c-2.4-3.4-6.5-5.2-10.6-6.2c-14.9-3.7-26.8,4.2-37,15.5c-13.1,14.6-10.4,18.5-8.2,36
		c4.9,39.4,17,96.7,23.2,147C244.2,419.8,255.5,487,256.4,497z"/>
	<path class="st1" d="M132,168.3c0.6,1-0.2,2.4,0.2,3.6c0.6,1.6,2.1,2.7,3.7,3.4c5.1,2.2,11.3,0.5,15.4-3.2s6.4-9.1,7.5-14.6
		c2.4-12.7,12.4-22.1-4.8-26.6C136.7,126.5,127.1,160.4,132,168.3z"/>
	<path class="st1" d="M344.2,177.9c3,0.5,6.4,0.3,8.5-2c1.6-1.8,1.9-4.3,2.2-6.7c0.6-6.8,0.6-14-2.3-20.1c-4.5-9.4-22.8-19-29.1-6.7
		C316.8,155.1,331.8,175.6,344.2,177.9z"/>
	<path class="st2" d="M220.6,56.7c2.4-3.2,6.8-4.1,10.7-4.6C280.1,45.1,336.1,58.3,373,91c18.9,16.7,36.9,41.8,41,47
		c15.2,19.1,25.5,38.1,30.5,55.1c18.5,62.9,18,90.6,0.5,140.9c-10.6,30.5-9.3,22.2-29,48c-14.5,19-17.5,13.4-35,28
		c-8.4,7-25.8,12-36,16c-14.4,5.6-16.8,4.3-37,9c-19.9,4.7-45.6,6.3-66,7.6c-33.4,2.3-66.6-7.2-97.7-19.5
		c-14.8-5.8-29.6-12.4-41.7-22.7c-11.9-10.1-20.7-23.3-28.5-36.9c-10-17.6-18.5-36.1-23.5-55.7c-8.6-33.8-6.4-69.5-0.4-103.9
		c3.5-19.8,8.3-39.5,17.3-57.4c13.9-27.7,37.6-50.1,65.3-64.1s87.8-33.9,118.8-32.2"/>
</g>
</svg>
