<?xml version="1.0" encoding="utf-8"?>
<!-- Generator: Adobe Illustrator 25.0.0, SVG Export Plug-In . SVG Version: 6.00 Build 0)  -->
<svg version="1.1" xmlns="http://www.w3.org/2000/svg" xmlns:xlink="http://www.w3.org/1999/xlink" x="0px" y="0px"
	 viewBox="0 0 612 611.97" style="enable-background:new 0 0 612 611.97;" xml:space="preserve">
<g id="图层_1">
</g>
<g id="图层_2">
	<g>
		<g>
			<path d="M416.1,119.86c-7.6-17.72-21.81-32.3-38.09-42.34c-17.82-10.99-38.61-16.33-59.45-16.8
				c-22.43-0.51-45.13,4.5-65.83,12.97c-5.42,2.22-10.88,4.49-15.77,7.77c-5.73,3.85-10.27,8.32-14.21,13.97
				c-3.32,4.75-5.61,10.19-7.68,15.57c-1.98,5.15-3.55,10.46-4.79,15.84c-2.89,12.6-4.14,25.62-4.55,38.53
				c-0.19,6.08-0.19,12.16-0.12,18.24c0.08,6.01,0.6,12.14-0.13,18.12c0.15-1.11,0.3-2.22,0.45-3.32c-0.29,1.98-0.75,3.88-1.49,5.74
				c0.42-1,0.84-1.99,1.26-2.99c-0.7,1.58-1.57,3.01-2.61,4.38c0.65-0.84,1.3-1.69,1.95-2.53c-3.96,4.9-9.22,8.7-13.65,13.17
				c-4.25,4.29-8.2,8.85-11.9,13.62c-7.89,10.18-14.72,20.98-20.09,32.71c-10.85,23.71-16.74,49.37-17.08,75.47
				c-0.35,26.62,5.1,53.58,16.67,77.6c6.09,12.66,14.56,24.67,25.26,33.86c11.02,9.46,23.62,16.16,37.29,20.95
				c12.29,4.31,25.15,6.79,38.03,8.57c14.83,2.05,29.75,3.5,44.67,4.79c30.69,2.65,62.42,3.33,92.12-6.12
				c13.41-4.27,26.45-10.37,37.68-18.91c12.3-9.35,22.32-20.85,30.13-34.2c7.49-12.79,13.06-26.81,17.55-40.91
				c4.83-15.13,8.01-30.61,10.09-46.34c1.98-14.95,2.65-30.07,1.94-45.14c-0.74-15.58-2.66-31.36-6.58-46.48
				c-7.26-28-23.36-55.59-49.81-69.28c-3.48-1.8-7.11-3.35-10.8-4.67c-2.94-1.05-5.95-1.88-8.84-3.07c1,0.42,1.99,0.84,2.99,1.26
				c-1.7-0.74-3.31-1.6-4.8-2.71c0.84,0.65,1.69,1.3,2.53,1.95c-0.97-0.78-1.82-1.62-2.62-2.57c0.65,0.84,1.3,1.69,1.95,2.53
				c-1.13-1.46-2.01-3.04-2.75-4.73c0.42,1,0.84,1.99,1.26,2.99c-1.36-3.38-2.05-6.94-2.54-10.54c0.15,1.11,0.3,2.22,0.45,3.32
				c-0.84-6.73-0.8-13.49,0.1-20.21c-0.15,1.11-0.3,2.22-0.45,3.32c0.75-5.27,2.02-10.42,3.81-15.43c1.04-2.92,0.26-7.03-1.26-9.63
				c-1.52-2.59-4.49-5.07-7.47-5.74c-7.02-1.6-13.02,2.13-15.38,8.73c-5.31,14.86-6.38,31.43-3.15,46.88
				c1.79,8.55,6.15,16.08,13.38,21.09c5.82,4.04,13.1,5.31,19.55,8.01c-1-0.42-1.99-0.84-2.99-1.26c5.42,2.34,10.47,5.37,15.14,8.97
				c-0.84-0.65-1.69-1.3-2.53-1.95c5.48,4.29,10.35,9.27,14.61,14.77c-0.65-0.84-1.3-1.69-1.95-2.53
				c5.22,6.83,9.4,14.33,12.74,22.24c-0.42-1-0.84-1.99-1.26-2.99c5.3,12.79,8.35,26.34,10.2,40.02c-0.15-1.11-0.3-2.22-0.45-3.32
				c2.9,21.95,2.86,44.22-0.04,66.17c0.15-1.11,0.3-2.22,0.45-3.32c-2.89,21.39-8.41,42.48-16.75,62.4c0.42-1,0.84-1.99,1.26-2.99
				c-4.67,11.05-10.36,21.68-17.71,31.2c0.65-0.84,1.3-1.69,1.95-2.53c-4.86,6.21-10.39,11.8-16.61,16.66
				c0.84-0.65,1.69-1.3,2.53-1.95c-7.34,5.66-15.41,10.24-23.93,13.88c1-0.42,1.99-0.84,2.99-1.26
				c-11.82,4.98-24.31,8.14-37.01,9.86c1.11-0.15,2.22-0.3,3.32-0.45c-27.7,3.66-55.69,0.81-83.34-1.94
				c-6.51-0.65-13.01-1.35-19.49-2.21c1.11,0.15,2.22,0.3,3.32,0.45c-15.95-2.14-31.91-5.29-46.81-11.55c1,0.42,1.99,0.84,2.99,1.26
				c-7.54-3.22-14.7-7.23-21.21-12.22c0.84,0.65,1.69,1.3,2.53,1.95c-5.73-4.45-10.8-9.6-15.25-15.33c0.65,0.84,1.3,1.69,1.95,2.53
				c-5.78-7.56-10.39-15.91-14.09-24.66c0.42,1,0.84,1.99,1.26,2.99c-5.35-12.82-8.88-26.36-10.77-40.12
				c0.15,1.11,0.3,2.22,0.45,3.32c-2.06-15.39-2.02-30.99,0.03-46.37c-0.15,1.11-0.3,2.22-0.45,3.32
				c2.04-14.94,5.98-29.58,11.81-43.49c-0.42,1-0.84,1.99-1.26,2.99c5.24-12.37,11.95-24.07,20.13-34.73
				c-0.65,0.84-1.3,1.69-1.95,2.53c3.81-4.93,7.91-9.63,12.31-14.03c5.19-5.2,10.97-9.6,15.38-15.54c5.31-7.14,6.09-16.3,5.92-24.9
				c-0.15-7.75-0.3-15.5-0.16-23.26c0.15-8.72,0.65-17.44,1.79-26.09c-0.15,1.11-0.3,2.22-0.45,3.32
				c1.48-10.89,3.98-21.67,8.21-31.83c-0.42,1-0.84,1.99-1.26,2.99c1.77-4.14,3.87-8.11,6.61-11.69c-0.65,0.84-1.3,1.69-1.95,2.53
				c1.81-2.28,3.84-4.3,6.12-6.12c-0.84,0.65-1.69,1.3-2.53,1.95c4.26-3.27,9.04-5.66,13.96-7.75c-1,0.42-1.99,0.84-2.99,1.26
				c13.74-5.73,28.17-9.86,42.93-11.85c-1.11,0.15-2.22,0.3-3.32,0.45c11.19-1.46,22.5-1.64,33.7-0.2c-1.11-0.15-2.22-0.3-3.32-0.45
				c9.16,1.24,18.08,3.56,26.62,7.11c-1-0.42-1.99-0.84-2.99-1.26c7.8,3.3,15.15,7.53,21.87,12.68c-0.84-0.65-1.69-1.3-2.53-1.95
				c5.85,4.55,11.13,9.76,15.67,15.62c-0.65-0.84-1.3-1.69-1.95-2.53c3.9,5.11,7.17,10.64,9.71,16.56c1.15,2.67,4.81,5.01,7.47,5.74
				c2.99,0.82,6.98,0.45,9.63-1.26c2.67-1.72,5.02-4.28,5.74-7.47C418.16,125.99,417.5,123.13,416.1,119.86L416.1,119.86z"/>
		</g>
	</g>
	<g>
		<g>
			<path d="M250.71,423.36c1.6,9.01,3.01,18.06,4.24,27.13c-0.09-0.66-0.18-1.33-0.27-1.99c3.35,24.95,5.27,50.09,5.73,75.27
				c0.06,3.6,0.1,7.19,0.11,10.79c0.01,3.4,0.26,6.96-0.16,10.34c0.09-0.66,0.18-1.33,0.27-1.99c-0.07,0.4-0.16,0.76-0.29,1.15
				c0.25-0.6,0.5-1.19,0.76-1.79c-0.09,0.24-0.2,0.48-0.34,0.7c0.8-0.93,0.99-1.2,0.59-0.8c-0.43,0.4-0.15,0.18,0.82-0.64
				c-0.2,0.12-0.42,0.23-0.63,0.33c0.6-0.25,1.19-0.5,1.79-0.76c-1.76,0.72-3.71,1.01-5.56,1.45c-1.99,0.48-3.98,0.99-5.96,1.54
				c-4.1,1.12-8.17,2.38-12.19,3.76c-8.37,2.87-16.57,6.27-24.53,10.12c-4.31,2.09-8.54,4.33-12.69,6.71
				c-3.4,1.95-4.87,6.88-2.69,10.26c2.22,3.44,6.62,4.78,10.26,2.69c7.25-4.16,14.74-7.87,22.44-11.12c-0.6,0.25-1.19,0.5-1.79,0.76
				c9.81-4.12,19.92-7.48,30.25-10.03c2.85-0.7,5.75-1.16,8.4-2.5c4.11-2.09,5.86-6.24,6.18-10.62c0.2-2.67,0.08-5.4,0.08-8.07
				c0-2.94-0.02-5.89-0.05-8.83c-0.29-22.72-1.77-45.43-4.43-68c-1.57-13.33-3.51-26.62-5.86-39.83c-0.31-1.75-1.97-3.62-3.45-4.48
				c-1.61-0.94-3.98-1.34-5.78-0.76c-1.81,0.59-3.57,1.71-4.48,3.45C250.48,419.46,250.34,421.28,250.71,423.36L250.71,423.36z"/>
		</g>
	</g>
	<g>
		<g>
			<path d="M258.63,543.17c-3.59,7.92-6.63,16.07-8.85,24.47c-2.21,8.39-3.32,16.86-4.45,25.44c0.09-0.66,0.18-1.33,0.27-1.99
				c-0.26,1.82-0.62,3.6-1.31,5.3c0.25-0.6,0.5-1.19,0.76-1.79c-0.17,0.39-0.35,0.76-0.55,1.13c-1.83,3.47-1,8.31,2.69,10.26
				c3.46,1.83,8.31,1.02,10.26-2.69c2.7-5.14,2.87-10.77,3.63-16.4c-0.09,0.66-0.18,1.33-0.27,1.99c1.7-12.42,5.02-24.57,9.86-36.13
				c-0.25,0.6-0.5,1.19-0.76,1.79c0.54-1.28,1.1-2.56,1.67-3.82c0.86-1.89,1.33-3.7,0.76-5.78c-0.48-1.74-1.82-3.62-3.45-4.48
				C265.61,538.74,260.36,539.35,258.63,543.17L258.63,543.17z"/>
		</g>
	</g>
	<g>
		<g>
			<path d="M260.93,555.75c5.85,4.55,11.11,9.82,15.66,15.68c-0.39-0.51-0.78-1.01-1.17-1.52c0.73,0.95,1.44,1.91,2.14,2.89
				c1.16,1.63,2.5,2.9,4.48,3.45c1.8,0.49,4.19,0.27,5.78-0.76c1.6-1.03,3.01-2.57,3.45-4.48c0.43-1.87,0.4-4.16-0.76-5.78
				c-5.38-7.56-11.64-14.39-18.97-20.09c-1.64-1.28-3.13-2.2-5.3-2.2c-1.84,0-4.04,0.82-5.3,2.2c-1.31,1.43-2.29,3.31-2.2,5.3
				C258.82,552.29,259.4,554.56,260.93,555.75L260.93,555.75z"/>
		</g>
	</g>
	<g>
		<g>
			<path d="M379.79,416.31c-1.54,17.71-3.32,35.39-5.24,53.06c-1.93,17.75-3.99,35.49-6.07,53.22c-1.16,9.87-2.17,19.77-3.48,29.63
				c0.09-0.66,0.18-1.33,0.27-1.99c-0.1,0.63-0.23,1.22-0.44,1.82c0.25-0.6,0.5-1.19,0.76-1.79c-0.03,0.06-0.33,0.65-0.33,0.66
				c0.25-0.31,0.49-0.63,0.74-0.94c-0.4,0.38-0.32,0.34,0.23-0.13c0.99-0.77,0.3-0.25,0.03-0.1c-0.26,0.14-0.53,0.26-0.81,0.38
				c0.6-0.25,1.19-0.5,1.79-0.76c-2.78,1.11-5.62,2.06-8.25,3.53c-2.61,1.46-5.06,3.31-7.28,5.3c-4.55,4.09-7.74,9.2-10.06,14.81
				c-0.69,1.67-0.11,4.3,0.76,5.78c0.91,1.56,2.69,3.04,4.48,3.45c1.92,0.44,4.07,0.34,5.78-0.76c1.75-1.13,2.66-2.57,3.45-4.48
				c0.05-0.12,0.1-0.23,0.14-0.35c-0.25,0.6-0.5,1.19-0.76,1.79c0.79-1.83,1.73-3.59,2.85-5.25c0.28-0.41,0.6-0.8,0.86-1.22
				c-1.25,2.01-0.43,0.55-0.01,0.05c0.6-0.72,1.23-1.4,1.9-2.06c0.66-0.66,1.35-1.29,2.07-1.89c1.49-1.25-1.09,0.76-0.05,0.01
				c0.4-0.29,0.81-0.59,1.22-0.86c1.66-1.12,3.41-2.06,5.24-2.85c-0.6,0.25-1.19,0.5-1.79,0.76c2.15-0.9,4.51-1.46,6.5-2.71
				c2.91-1.83,4.92-4.81,5.45-8.22c0.83-5.32,1.3-10.71,1.92-16.06c1.15-9.81,2.3-19.61,3.44-29.42
				c2.28-19.63,4.51-39.28,6.52-58.94c1.14-11.15,2.21-22.31,3.18-33.48c0.16-1.82-0.95-4.06-2.2-5.3c-1.3-1.3-3.44-2.28-5.3-2.2
				C382.94,409.01,380.15,412.12,379.79,416.31L379.79,416.31z"/>
		</g>
	</g>
	<g>
		<g>
			<path d="M366.74,558.59c8,9.57,16.77,18.49,26.22,26.64c1.52,1.32,3.23,2.2,5.3,2.2c1.84,0,4.04-0.82,5.3-2.2
				c2.58-2.81,3.17-7.87,0-10.61c-9.44-8.16-18.21-17.07-26.22-26.64c-1.17-1.4-3.55-2.2-5.3-2.2c-1.84,0-4.04,0.82-5.3,2.2
				c-1.31,1.43-2.29,3.31-2.2,5.3C364.64,555.37,365.4,556.99,366.74,558.59L366.74,558.59z"/>
		</g>
	</g>
	<g>
		<g>
			<path d="M368.82,553.5c4.33,3.94,9.55,5.1,15.19,5.75c4.71,0.55,9.47,0.66,14.21,0.64c9.56-0.04,19.16-0.6,28.68,0.67
				c-0.66-0.09-1.33-0.18-1.99-0.27c5.89,0.83,11.63,2.4,17.13,4.68c-0.6-0.25-1.19-0.5-1.79-0.76c3.53,1.5,6.93,3.27,10.18,5.32
				c3.32,2.1,8.41,0.81,10.26-2.69c1.95-3.7,0.86-8.02-2.69-10.26c-8.16-5.16-17.48-8.84-27.01-10.44
				c-10.4-1.75-20.82-1.37-31.31-1.27c-5.65,0.05-11.32-0.04-16.92-0.79c0.66,0.09,1.33,0.18,1.99,0.27
				c-1.84-0.26-3.64-0.64-5.36-1.33c0.6,0.25,1.19,0.5,1.79,0.76c-0.54-0.23-1.06-0.48-1.56-0.78c-0.22-0.13-0.43-0.29-0.65-0.42
				c-0.7-0.42,1.5,1.25,0.46,0.31c-2.9-2.64-7.78-3.08-10.61,0C366.17,545.77,365.72,550.68,368.82,553.5L368.82,553.5z"/>
		</g>
	</g>
	<g>
		<g>
			<path d="M269.02,530.48c0.31,0.37,0.61,0.74,0.91,1.11c0.23,0.28-0.06,0.02-0.06-0.08c0,0.07,0.17,0.23,0.22,0.29
				c0.14,0.19,0.28,0.39,0.42,0.58c0.58,0.81,1.12,1.64,1.62,2.49c0.49,0.83,0.95,1.67,1.37,2.53c0.21,0.43,0.41,0.87,0.61,1.31
				c0.03,0.06,0.19,0.44,0.05,0.11c-0.13-0.33,0.02,0.05,0.05,0.12c0.1,0.25,0.2,0.5,0.3,0.75c0.24,0.63,0.55,1.14,1.15,1.49
				c0.54,0.31,1.33,0.45,1.93,0.25c1.18-0.38,2.25-1.77,1.75-3.08c-1.62-4.19-3.87-8-6.78-11.42c-0.85-1-2.67-0.94-3.54,0
				C268.05,528.01,268.12,529.41,269.02,530.48L269.02,530.48z"/>
		</g>
	</g>
	<g>
		<g>
			<path d="M371.96,524.1c0,0.03,0.01,0.06,0.01,0.08c-0.03-0.22-0.06-0.44-0.09-0.66c0.06,0.47,0.06,0.95,0,1.42
				c0.03-0.22,0.06-0.44,0.09-0.66c-0.07,0.5-0.2,0.99-0.39,1.45c0.08-0.2,0.17-0.4,0.25-0.6c-0.21,0.49-0.47,0.95-0.8,1.38
				c0.13-0.17,0.26-0.34,0.39-0.51c-0.3,0.37-0.63,0.71-1.01,1.01c0.17-0.13,0.34-0.26,0.51-0.39c-0.27,0.2-0.55,0.38-0.85,0.54
				c-0.54,0.28-0.99,0.92-1.15,1.49c-0.16,0.6-0.09,1.4,0.25,1.93c0.77,1.19,2.17,1.54,3.42,0.9c1.41-0.72,2.64-1.98,3.36-3.4
				c0.36-0.71,0.67-1.48,0.81-2.26c0.08-0.49,0.16-1,0.17-1.5c0.01-0.52-0.07-1.03-0.15-1.54c-0.08-0.58-0.67-1.22-1.15-1.49
				c-0.54-0.31-1.33-0.45-1.93-0.25c-0.6,0.2-1.19,0.57-1.49,1.15c-0.08,0.2-0.17,0.4-0.25,0.6
				C371.84,523.21,371.84,523.66,371.96,524.1L371.96,524.1z"/>
		</g>
	</g>
	<g>
		<g>
			<path d="M254.96,145.22c0,0.74,0,1.49,0,2.23c-0.01,0.34,0.06,0.67,0.22,0.96c0.1,0.31,0.27,0.58,0.52,0.8
				c0.23,0.24,0.49,0.42,0.8,0.52c0.3,0.16,0.62,0.23,0.96,0.22c0.22-0.03,0.44-0.06,0.66-0.09c0.42-0.12,0.79-0.33,1.1-0.64
				c0.13-0.17,0.26-0.34,0.39-0.51c0.23-0.39,0.34-0.81,0.34-1.26c0-0.74,0-1.49,0-2.23c0.01-0.34-0.06-0.67-0.22-0.96
				c-0.1-0.31-0.27-0.58-0.52-0.8c-0.23-0.24-0.49-0.42-0.8-0.52c-0.3-0.16-0.62-0.23-0.96-0.22c-0.22,0.03-0.44,0.06-0.66,0.09
				c-0.42,0.12-0.79,0.33-1.1,0.64c-0.13,0.17-0.26,0.34-0.39,0.51C255.08,144.35,254.96,144.77,254.96,145.22L254.96,145.22z"/>
		</g>
	</g>
	<g>
		<g>
			<path d="M251.59,146.93c-0.67,3.39-1.07,6.88-0.95,10.34c0.04,1.25,0.06,2.72,0.4,3.88c0.63,2.15,1.89,4.02,3.85,5.19
				c3.54,2.11,8.03,1.12,10.74-1.83c1.67-1.82,2.52-4.05,3.43-6.31c0.51-1.26,0.92-2.56,1.24-3.88c0.77-3.2,1.16-6.56,1.02-9.85
				c-0.08-1.97-0.78-3.89-2.2-5.3c-1.3-1.3-3.44-2.28-5.3-2.2c-1.94,0.09-3.95,0.72-5.3,2.2c-1.31,1.43-2.28,3.3-2.2,5.3
				c0.07,1.64,0,3.28-0.2,4.91c0.09-0.66,0.18-1.33,0.27-1.99c-0.34,2.53-1,4.98-1.99,7.33c0.25-0.6,0.5-1.19,0.76-1.79
				c-0.37,0.85-0.73,1.76-1.29,2.5c0.39-0.51,0.78-1.01,1.17-1.52c-0.15,0.17-0.3,0.32-0.47,0.46c0.51-0.39,1.01-0.78,1.52-1.17
				c-0.11,0.08-0.22,0.16-0.35,0.21c0.6-0.25,1.19-0.5,1.79-0.76c-0.11,0.05-0.23,0.09-0.35,0.1c0.66-0.09,1.33-0.18,1.99-0.27
				c-0.06,0-0.11,0-0.17,0c0.66,0.09,1.33,0.18,1.99,0.27c-0.05-0.01-0.11-0.03-0.16-0.04c0.6,0.25,1.19,0.5,1.79,0.76
				c-0.05-0.03-0.1-0.05-0.15-0.08c0.51,0.39,1.01,0.78,1.52,1.17c-0.05-0.04-0.1-0.09-0.14-0.13c0.39,0.51,0.78,1.01,1.17,1.52
				c-0.09-0.11-0.16-0.23-0.2-0.37c0.25,0.6,0.5,1.19,0.76,1.79c-0.04-0.14-0.07-0.28-0.09-0.43c0.09,0.66,0.18,1.33,0.27,1.99
				c-0.23-2.57-0.14-5.18,0.2-7.74c-0.09,0.66-0.18,1.33-0.27,1.99c0.11-0.76,0.23-1.52,0.38-2.28c0.39-2,0.3-3.97-0.76-5.78
				c-0.91-1.56-2.69-3.04-4.48-3.45c-1.92-0.44-4.07-0.34-5.78,0.76C253.46,143.47,251.96,145.03,251.59,146.93L251.59,146.93z"/>
		</g>
	</g>
	<g>
		<g>
			<path d="M362.74,140.28c-0.52,3.47-0.85,6.9-0.55,10.41c0.29,3.46,0.87,6.91,1.97,10.22c0.84,2.52,2.62,4.52,5.24,5.24
				c2.69,0.74,5.28-0.11,7.3-1.93c3.23-2.91,5.58-7.12,6.57-11.35c1.02-4.35,1.03-9.18-0.56-13.39c-0.71-1.87-1.67-3.44-3.45-4.48
				c-1.61-0.94-3.98-1.34-5.78-0.76c-1.81,0.59-3.57,1.71-4.48,3.45c-0.89,1.69-1.46,3.92-0.76,5.78c0.42,1.1,0.7,2.23,0.87,3.4
				c-0.09-0.66-0.18-1.33-0.27-1.99c0.19,1.51,0.18,3.02-0.02,4.52c0.09-0.66,0.18-1.33,0.27-1.99c-0.21,1.42-0.58,2.79-1.12,4.11
				c0.25-0.6,0.5-1.19,0.76-1.79c-0.52,1.22-1.17,2.37-1.97,3.44c0.39-0.51,0.78-1.01,1.17-1.52c-0.55,0.71-1.16,1.37-1.83,1.97
				c4.18,1.1,8.36,2.21,12.54,3.31c-0.7-2.11-1.2-4.28-1.51-6.48c0.09,0.66,0.18,1.33,0.27,1.99c-0.41-3.17-0.41-6.36,0-9.53
				c-0.09,0.66-0.18,1.33-0.27,1.99c0.03-0.21,0.06-0.42,0.09-0.63c0.31-1,0.36-1.99,0.13-2.99c-0.05-1-0.34-1.93-0.89-2.79
				c-0.91-1.56-2.69-3.04-4.48-3.45c-1.92-0.44-4.07-0.34-5.78,0.76C364.66,136.78,363.02,138.4,362.74,140.28L362.74,140.28z"/>
		</g>
	</g>
	<g>
		<g>
			<path d="M298.77,166.09c-0.26,15.86,3.72,31.37,7.63,46.62c3.9,15.18,7.41,30.45,10.46,45.82c3.04,15.38,5.64,30.85,7.79,46.38
				c0.07,0.48,0.13,0.96,0.2,1.44c0.01,0.08,0.23,1.67,0.08,0.59c0.13,0.96,0.26,1.92,0.38,2.88c0.25,1.92,0.49,3.85,0.73,5.77
				c0.49,4.01,0.96,8.03,1.39,12.04c0.83,7.71,1.55,15.44,2.17,23.18c1.39,17.57,2.2,35.17,2.44,52.79
				c0.03,2.12,1.52,4.33,3.67,4.82c2.12,0.48,4.56-0.3,5.65-2.3c3.78-6.94,5.26-14.61,6-22.4c0.73-7.72,0.95-15.5,1.26-23.24
				c0.65-16.25,0.97-32.52,1.09-48.78c0.23-32.59-0.16-65.21-0.89-97.79c-0.41-18.26-1.41-36.55-4.78-54.53
				c-0.48-2.58-3.73-4.28-6.15-3.49c-2.75,0.89-4.01,3.39-3.49,6.15c0.36,1.91,0.69,3.82,1,5.74c0.15,0.96,0.3,1.92,0.44,2.88
				c0.07,0.48,0.14,0.96,0.21,1.44c0.08,0.6,0.09,0.64,0.02,0.11c0.04,0.32,0.08,0.64,0.13,0.96c0.5,3.85,0.9,7.72,1.23,11.59
				c0.67,7.91,1.04,15.85,1.27,23.79c0.46,15.95,0.59,31.91,0.79,47.86c0.41,32.37,0.53,64.75-0.59,97.1
				c-0.3,8.76-0.63,17.54-1.21,26.29c-0.14,2.03-0.3,4.06-0.54,6.08c-0.02,0.17-0.21,1.61-0.04,0.4c-0.06,0.43-0.12,0.86-0.19,1.29
				c-0.16,1-0.33,1.99-0.54,2.98c-0.4,1.97-0.91,3.91-1.56,5.81c-0.14,0.41-0.28,0.81-0.43,1.21c-0.1,0.27-0.2,0.53-0.31,0.8
				c0.23-0.53,0.23-0.54,0-0.01c-0.42,0.91-0.86,1.81-1.34,2.7c3.11,0.84,6.21,1.68,9.32,2.52c-0.43-31.36-2.68-62.69-6.73-93.78
				c-4.09-31.39-9.92-62.53-17.6-93.23c-2.1-8.41-4.4-16.77-6.18-25.25c-0.46-2.19-0.88-4.39-1.26-6.6c-0.19-1.1-0.36-2.2-0.52-3.31
				c0.01,0.07-0.21-1.48-0.11-0.76c0.05,0.35,0.03,0.25-0.04-0.28c-0.04-0.32-0.08-0.63-0.12-0.95c-0.52-4.43-0.78-8.89-0.71-13.35
				c0.04-2.62-2.33-5.12-5-5C301.03,161.21,298.82,163.28,298.77,166.09L298.77,166.09z"/>
		</g>
	</g>
	<g>
		<g>
			<path d="M307.81,164.35c1.84-5.55,6.74-9.81,12.45-10.97c6-1.22,12.27,1.43,16.06,6.1c0.85,1.05,2.65,0.89,3.54,0
				c1.04-1.04,0.85-2.48,0-3.54c-4.94-6.08-13.28-8.95-20.93-7.38c-7.44,1.52-13.58,7.33-15.94,14.47
				C301.98,166.08,306.8,167.39,307.81,164.35L307.81,164.35z"/>
		</g>
	</g>
</g>
</svg>
