<?xml version="1.0" encoding="utf-8"?>
<!-- Generator: Adobe Illustrator 25.0.0, SVG Export Plug-In . SVG Version: 6.00 Build 0)  -->
<svg version="1.1" xmlns="http://www.w3.org/2000/svg" xmlns:xlink="http://www.w3.org/1999/xlink" x="0px" y="0px"
	 viewBox="0 0 612 611.97" style="enable-background:new 0 0 612 611.97;" xml:space="preserve">
<g id="图层_1">
</g>
<g id="图层_2">
	<g>
		<g>
			<path d="M407.47,124.91c-6.89-16.06-19.27-29.24-34-38.44C357.42,76.45,338.84,71.41,320,70.76
				c-21.53-0.74-43.09,4.02-63.04,11.94c-9.21,3.66-18.22,8.12-24.38,16.16c-6.22,8.1-9.62,18.38-12.07,28.18
				c-5.24,20.94-5.21,42.75-4.76,64.19c0.1,4.95,0.44,10.24-1.42,14.94c-1.75,4.42-5.55,7.52-9,10.59
				c-6.51,5.77-12.49,12.1-17.86,18.94c-21.59,27.47-33.4,61.87-34.97,96.67c-0.79,17.54,1.06,35.27,5.63,52.24
				c4.94,18.36,13,36.38,25.87,50.59c25.85,28.52,66.33,33.31,102.48,36.86c42.17,4.14,87.03,7.98,126.16-11.78
				c17.55-8.86,31.73-22.33,41.9-39.12c10.64-17.56,17.58-37.56,22.38-57.45c5.07-21.01,7.48-42.7,7.09-64.32
				c-0.39-21.18-2.94-43.01-10.11-63.04c-6.45-18.02-17.11-34.61-32.77-45.94c-3.61-2.61-7.47-4.9-11.52-6.76
				c-4.16-1.91-8.51-3.14-12.78-4.72c-4.51-1.66-8-4.27-10.03-8.71c-2.03-4.44-2.66-9.62-3-14.45c-0.74-10.43,0.74-20.82,4.25-30.65
				c1.08-3.04-3.74-4.34-4.82-1.33c-3.56,9.97-5.13,20.68-4.48,31.26c0.55,8.85,2.02,19.34,9.62,25.05c3.68,2.76,8.18,4,12.49,5.43
				c4.25,1.41,8.31,3.25,12.16,5.52c7.56,4.45,14.15,10.36,19.74,17.11c12.76,15.41,19.31,34.93,22.79,54.38
				c3.71,20.75,4.39,42.11,2.57,63.09c-1.82,21.1-6.4,41.96-13.51,61.91c-6.49,18.18-15.24,36.12-28.91,50.03
				c-28.76,29.27-72.31,34.38-111.28,32.55c-11.38-0.53-22.73-1.58-34.07-2.69c-9.25-0.9-18.5-1.79-27.7-3.09
				c-17.85-2.51-35.96-6.39-52-14.9c-16.58-8.79-29.06-22.47-37.52-39.12c-8.05-15.85-12.79-33.57-14.75-51.2
				c-3.74-33.77,2.6-68.79,18.82-98.72c8.07-14.89,18.55-28.39,31.2-39.68c3.46-3.08,7.12-6.13,9.41-10.24
				c2.29-4.1,2.92-8.82,3.01-13.45c0.21-10.55-0.41-21.11-0.07-31.67c0.33-10.4,1.19-20.81,3.25-31.02
				c2.01-9.97,4.9-20.35,10.25-29.09c5.2-8.52,13.45-13.4,22.48-17.1c9.79-4.01,19.94-7.2,30.29-9.38
				c19.84-4.18,40.85-4.51,60.39,1.37c16.27,4.89,31.41,14.02,42.72,26.76c5.42,6.1,9.81,13.04,13.03,20.53
				c0.54,1.25,2.35,1.51,3.42,0.9C407.86,127.6,408,126.14,407.47,124.91L407.47,124.91z"/>
		</g>
	</g>
	<g>
		<g>
			<path d="M255.53,422.04c4.48,25.22,7.45,50.69,8.92,76.25c0.73,12.73,1.08,25.48,1.06,38.23c0,1.63-0.01,3.27-0.03,4.9
				c-0.01,1.12,0.2,2.64-0.24,3.72c-0.33,0.81-1.23,1.03-2,1.24c-1.45,0.39-2.93,0.68-4.4,1.03c-5.83,1.42-11.6,3.09-17.28,5.02
				c-12.72,4.31-25.02,9.86-36.67,16.55c-2.79,1.6-0.27,5.92,2.52,4.32c10.62-6.09,21.77-11.24,33.32-15.3
				c5.73-2.02,11.55-3.77,17.44-5.27c2.75-0.7,5.78-1.04,8.37-2.25c2.9-1.35,3.82-4.18,3.9-7.18c0.34-13.03-0.08-26.12-0.71-39.13
				c-0.63-13.14-1.66-26.27-3.09-39.35c-1.61-14.77-3.72-29.48-6.31-44.11c-0.24-1.33-1.86-2.08-3.08-1.75
				C255.88,419.35,255.3,420.7,255.53,422.04L255.53,422.04z"/>
		</g>
	</g>
	<g>
		<g>
			<path d="M262.95,545.69c-3.86,8.51-6.96,17.34-9.14,26.43c-1.08,4.51-1.94,9.07-2.58,13.66c-0.57,4.07-0.46,8.77-2.41,12.48
				c-1.5,2.85,2.82,5.38,4.32,2.52c2.12-4.02,2.25-8.54,2.82-12.96c0.59-4.53,1.43-9.03,2.47-13.47c2.09-8.97,5.04-17.75,8.85-26.14
				c0.56-1.23,0.35-2.69-0.9-3.42C265.3,544.17,263.51,544.46,262.95,545.69L262.95,545.69z"/>
		</g>
	</g>
	<g>
		<g>
			<path d="M264.47,552.22c6.62,5.15,12.54,11.22,17.41,18.06c0.78,1.1,2.18,1.62,3.42,0.9c1.09-0.64,1.68-2.31,0.9-3.42
				c-5.12-7.2-11.21-13.65-18.19-19.08c-1.06-0.83-2.5-1.04-3.54,0C263.61,549.55,263.4,551.38,264.47,552.22L264.47,552.22z"/>
		</g>
	</g>
	<g>
		<g>
			<path d="M384.79,416.31c-2.06,23.66-4.56,47.29-7.22,70.89c-1.32,11.72-2.69,23.43-4.06,35.15c-0.69,5.93-1.39,11.85-2.08,17.78
				c-0.35,2.96-0.69,5.92-1.04,8.88c-0.22,1.86,0.03,4.31-1.92,5.22c-2.24,1.05-4.6,1.7-6.79,2.91c-2.26,1.24-4.37,2.78-6.29,4.49
				c-3.94,3.5-6.9,7.87-8.91,12.73c-0.52,1.25,0.56,2.75,1.75,3.08c1.44,0.39,2.56-0.49,3.08-1.75c1.65-3.98,4.3-7.53,7.49-10.39
				c1.61-1.44,3.37-2.68,5.25-3.74c1.89-1.06,3.87-1.72,5.86-2.53c2.49-1.01,4.3-2.68,4.88-5.39c0.6-2.79,0.73-5.74,1.06-8.57
				c0.69-5.92,1.39-11.84,2.08-17.76c2.76-23.59,5.52-47.18,7.99-70.81c1.4-13.38,2.7-26.77,3.87-40.18c0.12-1.35-1.23-2.5-2.5-2.5
				C385.84,413.81,384.91,414.96,384.79,416.31L384.79,416.31z"/>
		</g>
	</g>
	<g>
		<g>
			<path d="M370.28,555.05c8,9.57,16.77,18.49,26.22,26.64c1.02,0.88,2.53,1,3.54,0c0.9-0.9,1.03-2.65,0-3.54
				c-9.44-8.16-18.21-17.07-26.22-26.64c-0.87-1.04-2.64-0.89-3.54,0C369.25,552.54,369.41,554.01,370.28,555.05L370.28,555.05z"/>
		</g>
	</g>
	<g>
		<g>
			<path d="M372.35,549.97c3.96,3.6,9.42,4.15,14.53,4.57c5.7,0.46,11.42,0.39,17.13,0.29c11.1-0.19,22.17-0.28,32.89,3.01
				c5.66,1.73,11.02,4.24,16.02,7.4c2.73,1.72,5.24-2.6,2.52-4.32c-9.02-5.7-19.18-9.22-29.76-10.5c-11.29-1.37-22.67-0.21-34-0.61
				c-3.02-0.11-6.09-0.26-9.07-0.74c-2.39-0.39-4.89-0.96-6.73-2.64C373.51,544.27,369.96,547.8,372.35,549.97L372.35,549.97z"/>
		</g>
	</g>
	<g>
		<g>
			<path d="M269.02,530.48c0.31,0.37,0.61,0.74,0.91,1.11c0.23,0.28-0.06,0.02-0.06-0.08c0,0.07,0.17,0.23,0.22,0.29
				c0.14,0.19,0.28,0.39,0.42,0.58c0.58,0.81,1.12,1.64,1.62,2.49c0.49,0.83,0.95,1.67,1.37,2.53c0.21,0.43,0.41,0.87,0.61,1.31
				c0.03,0.06,0.19,0.44,0.05,0.11c-0.13-0.33,0.02,0.05,0.05,0.12c0.1,0.25,0.2,0.5,0.3,0.75c0.24,0.63,0.55,1.14,1.15,1.49
				c0.54,0.31,1.33,0.45,1.93,0.25c1.18-0.38,2.25-1.77,1.75-3.08c-1.62-4.19-3.87-8-6.78-11.42c-0.85-1-2.67-0.94-3.54,0
				C268.05,528.01,268.12,529.41,269.02,530.48L269.02,530.48z"/>
		</g>
	</g>
	<g>
		<g>
			<path d="M371.96,524.1c0,0.03,0.01,0.06,0.01,0.08c-0.03-0.22-0.06-0.44-0.09-0.66c0.06,0.47,0.06,0.95,0,1.42
				c0.03-0.22,0.06-0.44,0.09-0.66c-0.07,0.5-0.2,0.99-0.39,1.45c0.08-0.2,0.17-0.4,0.25-0.6c-0.21,0.49-0.47,0.95-0.8,1.38
				c0.13-0.17,0.26-0.34,0.39-0.51c-0.3,0.37-0.63,0.71-1.01,1.01c0.17-0.13,0.34-0.26,0.51-0.39c-0.27,0.2-0.55,0.38-0.85,0.54
				c-0.54,0.28-0.99,0.92-1.15,1.49c-0.16,0.6-0.09,1.4,0.25,1.93c0.77,1.19,2.17,1.54,3.42,0.9c1.41-0.72,2.64-1.98,3.36-3.4
				c0.36-0.71,0.67-1.48,0.81-2.26c0.08-0.49,0.16-1,0.17-1.5c0.01-0.52-0.07-1.03-0.15-1.54c-0.08-0.58-0.67-1.22-1.15-1.49
				c-0.54-0.31-1.33-0.45-1.93-0.25c-0.6,0.2-1.19,0.57-1.49,1.15c-0.08,0.2-0.17,0.4-0.25,0.6
				C371.84,523.21,371.84,523.66,371.96,524.1L371.96,524.1z"/>
		</g>
	</g>
	<g>
		<g>
			<path d="M254.96,145.22c0,0.74,0,1.49,0,2.23c-0.01,0.34,0.06,0.67,0.22,0.96c0.1,0.31,0.27,0.58,0.52,0.8
				c0.23,0.24,0.49,0.42,0.8,0.52c0.3,0.16,0.62,0.23,0.96,0.22c0.22-0.03,0.44-0.06,0.66-0.09c0.42-0.12,0.79-0.33,1.1-0.64
				c0.13-0.17,0.26-0.34,0.39-0.51c0.23-0.39,0.34-0.81,0.34-1.26c0-0.74,0-1.49,0-2.23c0.01-0.34-0.06-0.67-0.22-0.96
				c-0.1-0.31-0.27-0.58-0.52-0.8c-0.23-0.24-0.49-0.42-0.8-0.52c-0.3-0.16-0.62-0.23-0.96-0.22c-0.22,0.03-0.44,0.06-0.66,0.09
				c-0.42,0.12-0.79,0.33-1.1,0.64c-0.13,0.17-0.26,0.34-0.39,0.51C255.08,144.35,254.96,144.77,254.96,145.22L254.96,145.22z"/>
		</g>
	</g>
	<g>
		<g>
			<path d="M256.45,148.26c-0.64,3.05-0.94,6.19-0.8,9.31c0.08,1.74,0.22,3.61,1.94,4.54c1.63,0.88,3.52,0.13,4.67-1.16
				c0.93-1.04,1.5-2.4,2.04-3.67c0.58-1.35,1.08-2.73,1.45-4.16c0.73-2.81,1.04-5.75,0.91-8.64c-0.06-1.3-1.11-2.56-2.5-2.5
				c-1.3,0.06-2.56,1.1-2.5,2.5c0.05,1.07,0.04,2.15-0.04,3.22c-0.02,0.27-0.04,0.54-0.07,0.8c0-0.01-0.1,0.8-0.04,0.4
				c-0.08,0.53-0.17,1.06-0.28,1.59c-0.22,1.05-0.5,2.09-0.84,3.11c-0.38,1.13-0.57,1.59-1.08,2.63c-0.23,0.46-0.46,0.92-0.73,1.36
				c0.22-0.35-0.01,0.01-0.16,0.14c0.06-0.04,0.12-0.09,0.18-0.13c-0.25,0.14-0.23,0.14,0.08-0.02c0.63,0.25,1.27,0.5,1.9,0.75
				c0.1,0.12,0.14,0.26,0.14,0.41c-0.05-0.02-0.06-0.82-0.06-0.87c-0.03-0.58-0.05-1.16-0.05-1.74c-0.01-2.37,0.2-4.34,0.65-6.53
				c0.27-1.28-0.37-2.76-1.75-3.08C258.28,146.23,256.74,146.89,256.45,148.26L256.45,148.26z"/>
		</g>
	</g>
	<g>
		<g>
			<path d="M374.37,141.61c-0.97,6.03-0.53,12.19,1.5,17.97c0.65,1.85,2.7,2.36,4.18,1.1c5.53-4.69,7.67-13.13,4.97-19.87
				c-0.5-1.25-1.67-2.13-3.08-1.75c-1.19,0.33-2.25,1.81-1.75,3.08c0.28,0.69,0.51,1.4,0.68,2.13c0.09,0.36,0.16,0.73,0.21,1.1
				c0.04,0.27-0.01-0.26,0.02,0.2c0.01,0.17,0.03,0.33,0.04,0.5c0.05,0.75,0.04,1.49-0.02,2.24c0-0.02-0.07,0.67-0.03,0.41
				c0.03-0.26-0.07,0.42-0.07,0.41c-0.06,0.37-0.14,0.73-0.23,1.1c-0.18,0.73-0.41,1.44-0.69,2.13c-0.16,0.39,0.14-0.29-0.04,0.09
				c-0.09,0.19-0.18,0.38-0.27,0.56c-0.17,0.33-0.35,0.66-0.54,0.98c-0.19,0.32-0.39,0.63-0.61,0.94c-0.1,0.14-0.19,0.27-0.29,0.4
				c0.23-0.29-0.11,0.12-0.15,0.17c-0.51,0.6-1.08,1.15-1.68,1.66c1.39,0.37,2.79,0.74,4.18,1.1c-1.74-4.93-2.32-10.22-1.5-15.31
				c0.21-1.33-0.34-2.69-1.75-3.08C376.26,139.53,374.59,140.27,374.37,141.61L374.37,141.61z"/>
		</g>
	</g>
	<g>
		<g>
			<path d="M301.27,166.09c-0.25,15.65,3.68,30.91,7.54,45.95c3.9,15.18,7.41,30.45,10.46,45.82c6.08,30.71,10.36,61.76,12.83,92.96
				c1.39,17.57,2.2,35.17,2.44,52.79c0.03,2.41,3.44,3.49,4.66,1.26c3.56-6.52,4.96-13.8,5.66-21.13c0.73-7.72,0.95-15.5,1.26-23.24
				c0.65-16.25,0.97-32.52,1.09-48.78c0.23-32.59-0.16-65.21-0.89-97.79c-0.4-18.03-1.36-36.11-4.69-53.86
				c-0.25-1.33-1.85-2.08-3.08-1.75c-1.39,0.38-2,1.74-1.75,3.08c2.92,15.56,3.92,31.38,4.38,47.18
				c0.46,15.95,0.59,31.91,0.79,47.86c0.41,32.37,0.53,64.75-0.59,97.1c-0.3,8.76-0.63,17.54-1.21,26.29
				c-0.52,7.72-1.53,15.63-5.29,22.52c1.55,0.42,3.11,0.84,4.66,1.26c-0.43-31.36-2.68-62.69-6.73-93.78
				c-4.06-31.16-9.88-62.08-17.51-92.57c-4.2-16.8-9.31-33.68-9.02-51.17C306.32,162.87,301.32,162.87,301.27,166.09L301.27,166.09z
				"/>
		</g>
	</g>
	<g>
		<g>
			<path d="M307.81,164.35c1.84-5.55,6.74-9.81,12.45-10.97c6-1.22,12.27,1.43,16.06,6.1c0.85,1.05,2.65,0.89,3.54,0
				c1.04-1.04,0.85-2.48,0-3.54c-4.94-6.08-13.28-8.95-20.93-7.38c-7.44,1.52-13.58,7.33-15.94,14.47
				C301.98,166.08,306.8,167.39,307.81,164.35L307.81,164.35z"/>
		</g>
	</g>
</g>
</svg>
